<svg xmlns="http://www.w3.org/2000/svg" version="1.1" xmlns:xlink="http://www.w3.org/1999/xlink" xmlns:svgjs="http://svgjs.com/svgjs" width="1440" height="560" preserveAspectRatio="none" viewBox="0 0 1440 560"><g mask="url(&quot;#SvgjsMask1002&quot;)" fill="none"><rect width="1440" height="560" x="0" y="0" fill="rgba(6, 11, 17, 1)"></rect><path d="M94.47 49.16L159.43 86.66L159.43 161.66L94.47 199.16L29.52 161.66L29.52 86.66zM29.52 161.66L94.47 199.16L94.47 274.16L29.52 311.66L-35.43 274.16L-35.43 199.16zM29.52 386.66L94.47 424.16L94.47 499.16L29.52 536.66L-35.43 499.16L-35.43 424.16zM94.47 499.16L159.43 536.66L159.43 611.66L94.47 649.16L29.52 611.66L29.52 536.66zM159.43 -63.34L224.38 -25.84L224.38 49.16L159.43 86.66L94.47 49.16L94.47 -25.84zM224.38 49.16L289.33 86.66L289.33 161.66L224.38 199.16L159.43 161.66L159.43 86.66zM159.43 161.66L224.38 199.16L224.38 274.16L159.43 311.66L94.47 274.16L94.47 199.16zM224.38 499.16L289.33 536.66L289.33 611.66L224.38 649.16L159.43 611.66L159.43 536.66zM289.33 386.66L354.29 424.16L354.29 499.16L289.33 536.66L224.38 499.16L224.38 424.16zM419.24 161.66L484.2 199.16L484.2 274.16L419.24 311.66L354.29 274.16L354.29 199.16zM484.2 274.16L549.15 311.66L549.15 386.66L484.2 424.16L419.24 386.66L419.24 311.66zM419.24 386.66L484.2 424.16L484.2 499.16L419.24 536.66L354.29 499.16L354.29 424.16zM549.15 161.66L614.1 199.16L614.1 274.16L549.15 311.66L484.2 274.16L484.2 199.16zM614.1 499.16L679.06 536.66L679.06 611.66L614.1 649.16L549.15 611.66L549.15 536.66zM679.06 -63.34L744.01 -25.84L744.01 49.16L679.06 86.66L614.1 49.16L614.1 -25.84zM744.01 49.16L808.97 86.66L808.97 161.66L744.01 199.16L679.06 161.66L679.06 86.66zM679.06 161.66L744.01 199.16L744.01 274.16L679.06 311.66L614.1 274.16L614.1 199.16zM744.01 274.16L808.97 311.66L808.97 386.66L744.01 424.16L679.06 386.66L679.06 311.66zM679.06 386.66L744.01 424.16L744.01 499.16L679.06 536.66L614.1 499.16L614.1 424.16zM808.96 -63.34L873.92 -25.84L873.92 49.16L808.96 86.66L744.01 49.16L744.01 -25.84zM808.96 161.66L873.92 199.16L873.92 274.16L808.96 311.66L744.01 274.16L744.01 199.16zM873.92 274.16L938.87 311.66L938.87 386.66L873.92 424.16L808.96 386.66L808.96 311.66zM808.96 386.66L873.92 424.16L873.92 499.16L808.96 536.66L744.01 499.16L744.01 424.16zM938.87 -63.34L1003.83 -25.84L1003.83 49.16L938.87 86.66L873.92 49.16L873.92 -25.84zM1003.83 274.16L1068.78 311.66L1068.78 386.66L1003.83 424.16L938.87 386.66L938.87 311.66zM1003.83 499.16L1068.78 536.66L1068.78 611.66L1003.83 649.16L938.87 611.66L938.87 536.66zM1068.78 -63.34L1133.73 -25.84L1133.73 49.16L1068.78 86.66L1003.83 49.16L1003.83 -25.84zM1133.73 49.16L1198.69 86.66L1198.69 161.66L1133.73 199.16L1068.78 161.66L1068.78 86.66zM1133.73 274.16L1198.69 311.66L1198.69 386.66L1133.73 424.16L1068.78 386.66L1068.78 311.66zM1068.78 386.66L1133.73 424.16L1133.73 499.16L1068.78 536.66L1003.83 499.16L1003.83 424.16zM1263.64 49.16L1328.59 86.66L1328.59 161.66L1263.64 199.16L1198.69 161.66L1198.69 86.66zM1198.69 161.66L1263.64 199.16L1263.64 274.16L1198.69 311.66L1133.73 274.16L1133.73 199.16zM1263.64 274.16L1328.59 311.66L1328.59 386.66L1263.64 424.16L1198.69 386.66L1198.69 311.66zM1263.64 499.16L1328.59 536.66L1328.59 611.66L1263.64 649.16L1198.69 611.66L1198.69 536.66zM1328.6 -63.34L1393.55 -25.84L1393.55 49.16L1328.6 86.66L1263.64 49.16L1263.64 -25.84zM1328.6 161.66L1393.55 199.16L1393.55 274.16L1328.6 311.66L1263.64 274.16L1263.64 199.16zM1523.46 49.16L1588.41 86.66L1588.41 161.66L1523.46 199.16L1458.5 161.66L1458.5 86.66zM1458.5 161.66L1523.46 199.16L1523.46 274.16L1458.5 311.66L1393.55 274.16L1393.55 199.16z" stroke="#03305d" stroke-width="2"></path><path d="M86.97 49.16 a7.5 7.5 0 1 0 15 0 a7.5 7.5 0 1 0 -15 0zM151.93 86.66 a7.5 7.5 0 1 0 15 0 a7.5 7.5 0 1 0 -15 0zM151.93 161.66 a7.5 7.5 0 1 0 15 0 a7.5 7.5 0 1 0 -15 0zM86.97 199.16 a7.5 7.5 0 1 0 15 0 a7.5 7.5 0 1 0 -15 0zM22.02 161.66 a7.5 7.5 0 1 0 15 0 a7.5 7.5 0 1 0 -15 0zM22.02 86.66 a7.5 7.5 0 1 0 15 0 a7.5 7.5 0 1 0 -15 0zM86.97 274.16 a7.5 7.5 0 1 0 15 0 a7.5 7.5 0 1 0 -15 0zM22.02 311.66 a7.5 7.5 0 1 0 15 0 a7.5 7.5 0 1 0 -15 0zM-42.93 274.16 a7.5 7.5 0 1 0 15 0 a7.5 7.5 0 1 0 -15 0zM-42.93 199.16 a7.5 7.5 0 1 0 15 0 a7.5 7.5 0 1 0 -15 0zM22.02 386.66 a7.5 7.5 0 1 0 15 0 a7.5 7.5 0 1 0 -15 0zM86.97 424.16 a7.5 7.5 0 1 0 15 0 a7.5 7.5 0 1 0 -15 0zM86.97 499.16 a7.5 7.5 0 1 0 15 0 a7.5 7.5 0 1 0 -15 0zM22.02 536.66 a7.5 7.5 0 1 0 15 0 a7.5 7.5 0 1 0 -15 0zM-42.93 499.16 a7.5 7.5 0 1 0 15 0 a7.5 7.5 0 1 0 -15 0zM-42.93 424.16 a7.5 7.5 0 1 0 15 0 a7.5 7.5 0 1 0 -15 0zM151.93 536.66 a7.5 7.5 0 1 0 15 0 a7.5 7.5 0 1 0 -15 0zM151.93 611.66 a7.5 7.5 0 1 0 15 0 a7.5 7.5 0 1 0 -15 0zM86.97 649.16 a7.5 7.5 0 1 0 15 0 a7.5 7.5 0 1 0 -15 0zM22.02 611.66 a7.5 7.5 0 1 0 15 0 a7.5 7.5 0 1 0 -15 0zM151.93 -63.34 a7.5 7.5 0 1 0 15 0 a7.5 7.5 0 1 0 -15 0zM216.88 -25.84 a7.5 7.5 0 1 0 15 0 a7.5 7.5 0 1 0 -15 0zM216.88 49.16 a7.5 7.5 0 1 0 15 0 a7.5 7.5 0 1 0 -15 0zM86.97 -25.84 a7.5 7.5 0 1 0 15 0 a7.5 7.5 0 1 0 -15 0zM281.83 86.66 a7.5 7.5 0 1 0 15 0 a7.5 7.5 0 1 0 -15 0zM281.83 161.66 a7.5 7.5 0 1 0 15 0 a7.5 7.5 0 1 0 -15 0zM216.88 199.16 a7.5 7.5 0 1 0 15 0 a7.5 7.5 0 1 0 -15 0zM216.88 274.16 a7.5 7.5 0 1 0 15 0 a7.5 7.5 0 1 0 -15 0zM151.93 311.66 a7.5 7.5 0 1 0 15 0 a7.5 7.5 0 1 0 -15 0zM216.88 499.16 a7.5 7.5 0 1 0 15 0 a7.5 7.5 0 1 0 -15 0zM281.83 536.66 a7.5 7.5 0 1 0 15 0 a7.5 7.5 0 1 0 -15 0zM281.83 611.66 a7.5 7.5 0 1 0 15 0 a7.5 7.5 0 1 0 -15 0zM216.88 649.16 a7.5 7.5 0 1 0 15 0 a7.5 7.5 0 1 0 -15 0zM281.83 386.66 a7.5 7.5 0 1 0 15 0 a7.5 7.5 0 1 0 -15 0zM346.79 424.16 a7.5 7.5 0 1 0 15 0 a7.5 7.5 0 1 0 -15 0zM346.79 499.16 a7.5 7.5 0 1 0 15 0 a7.5 7.5 0 1 0 -15 0zM216.88 424.16 a7.5 7.5 0 1 0 15 0 a7.5 7.5 0 1 0 -15 0zM411.74 161.66 a7.5 7.5 0 1 0 15 0 a7.5 7.5 0 1 0 -15 0zM476.7 199.16 a7.5 7.5 0 1 0 15 0 a7.5 7.5 0 1 0 -15 0zM476.7 274.16 a7.5 7.5 0 1 0 15 0 a7.5 7.5 0 1 0 -15 0zM411.74 311.66 a7.5 7.5 0 1 0 15 0 a7.5 7.5 0 1 0 -15 0zM346.79 274.16 a7.5 7.5 0 1 0 15 0 a7.5 7.5 0 1 0 -15 0zM346.79 199.16 a7.5 7.5 0 1 0 15 0 a7.5 7.5 0 1 0 -15 0zM541.65 311.66 a7.5 7.5 0 1 0 15 0 a7.5 7.5 0 1 0 -15 0zM541.65 386.66 a7.5 7.5 0 1 0 15 0 a7.5 7.5 0 1 0 -15 0zM476.7 424.16 a7.5 7.5 0 1 0 15 0 a7.5 7.5 0 1 0 -15 0zM411.74 386.66 a7.5 7.5 0 1 0 15 0 a7.5 7.5 0 1 0 -15 0zM476.7 499.16 a7.5 7.5 0 1 0 15 0 a7.5 7.5 0 1 0 -15 0zM411.74 536.66 a7.5 7.5 0 1 0 15 0 a7.5 7.5 0 1 0 -15 0zM541.65 161.66 a7.5 7.5 0 1 0 15 0 a7.5 7.5 0 1 0 -15 0zM606.6 199.16 a7.5 7.5 0 1 0 15 0 a7.5 7.5 0 1 0 -15 0zM606.6 274.16 a7.5 7.5 0 1 0 15 0 a7.5 7.5 0 1 0 -15 0zM606.6 499.16 a7.5 7.5 0 1 0 15 0 a7.5 7.5 0 1 0 -15 0zM671.56 536.66 a7.5 7.5 0 1 0 15 0 a7.5 7.5 0 1 0 -15 0zM671.56 611.66 a7.5 7.5 0 1 0 15 0 a7.5 7.5 0 1 0 -15 0zM606.6 649.16 a7.5 7.5 0 1 0 15 0 a7.5 7.5 0 1 0 -15 0zM541.65 611.66 a7.5 7.5 0 1 0 15 0 a7.5 7.5 0 1 0 -15 0zM541.65 536.66 a7.5 7.5 0 1 0 15 0 a7.5 7.5 0 1 0 -15 0zM671.56 -63.34 a7.5 7.5 0 1 0 15 0 a7.5 7.5 0 1 0 -15 0zM736.51 -25.84 a7.5 7.5 0 1 0 15 0 a7.5 7.5 0 1 0 -15 0zM736.51 49.16 a7.5 7.5 0 1 0 15 0 a7.5 7.5 0 1 0 -15 0zM671.56 86.66 a7.5 7.5 0 1 0 15 0 a7.5 7.5 0 1 0 -15 0zM606.6 49.16 a7.5 7.5 0 1 0 15 0 a7.5 7.5 0 1 0 -15 0zM606.6 -25.84 a7.5 7.5 0 1 0 15 0 a7.5 7.5 0 1 0 -15 0zM801.47 86.66 a7.5 7.5 0 1 0 15 0 a7.5 7.5 0 1 0 -15 0zM801.47 161.66 a7.5 7.5 0 1 0 15 0 a7.5 7.5 0 1 0 -15 0zM736.51 199.16 a7.5 7.5 0 1 0 15 0 a7.5 7.5 0 1 0 -15 0zM671.56 161.66 a7.5 7.5 0 1 0 15 0 a7.5 7.5 0 1 0 -15 0zM736.51 274.16 a7.5 7.5 0 1 0 15 0 a7.5 7.5 0 1 0 -15 0zM671.56 311.66 a7.5 7.5 0 1 0 15 0 a7.5 7.5 0 1 0 -15 0zM801.47 311.66 a7.5 7.5 0 1 0 15 0 a7.5 7.5 0 1 0 -15 0zM801.47 386.66 a7.5 7.5 0 1 0 15 0 a7.5 7.5 0 1 0 -15 0zM736.51 424.16 a7.5 7.5 0 1 0 15 0 a7.5 7.5 0 1 0 -15 0zM671.56 386.66 a7.5 7.5 0 1 0 15 0 a7.5 7.5 0 1 0 -15 0zM736.51 499.16 a7.5 7.5 0 1 0 15 0 a7.5 7.5 0 1 0 -15 0zM606.6 424.16 a7.5 7.5 0 1 0 15 0 a7.5 7.5 0 1 0 -15 0zM801.46 -63.34 a7.5 7.5 0 1 0 15 0 a7.5 7.5 0 1 0 -15 0zM866.42 -25.84 a7.5 7.5 0 1 0 15 0 a7.5 7.5 0 1 0 -15 0zM866.42 49.16 a7.5 7.5 0 1 0 15 0 a7.5 7.5 0 1 0 -15 0zM801.46 86.66 a7.5 7.5 0 1 0 15 0 a7.5 7.5 0 1 0 -15 0zM801.46 161.66 a7.5 7.5 0 1 0 15 0 a7.5 7.5 0 1 0 -15 0zM866.42 199.16 a7.5 7.5 0 1 0 15 0 a7.5 7.5 0 1 0 -15 0zM866.42 274.16 a7.5 7.5 0 1 0 15 0 a7.5 7.5 0 1 0 -15 0zM801.46 311.66 a7.5 7.5 0 1 0 15 0 a7.5 7.5 0 1 0 -15 0zM931.37 311.66 a7.5 7.5 0 1 0 15 0 a7.5 7.5 0 1 0 -15 0zM931.37 386.66 a7.5 7.5 0 1 0 15 0 a7.5 7.5 0 1 0 -15 0zM866.42 424.16 a7.5 7.5 0 1 0 15 0 a7.5 7.5 0 1 0 -15 0zM801.46 386.66 a7.5 7.5 0 1 0 15 0 a7.5 7.5 0 1 0 -15 0zM866.42 499.16 a7.5 7.5 0 1 0 15 0 a7.5 7.5 0 1 0 -15 0zM801.46 536.66 a7.5 7.5 0 1 0 15 0 a7.5 7.5 0 1 0 -15 0zM931.37 -63.34 a7.5 7.5 0 1 0 15 0 a7.5 7.5 0 1 0 -15 0zM996.33 -25.84 a7.5 7.5 0 1 0 15 0 a7.5 7.5 0 1 0 -15 0zM996.33 49.16 a7.5 7.5 0 1 0 15 0 a7.5 7.5 0 1 0 -15 0zM931.37 86.66 a7.5 7.5 0 1 0 15 0 a7.5 7.5 0 1 0 -15 0zM996.33 274.16 a7.5 7.5 0 1 0 15 0 a7.5 7.5 0 1 0 -15 0zM1061.28 311.66 a7.5 7.5 0 1 0 15 0 a7.5 7.5 0 1 0 -15 0zM1061.28 386.66 a7.5 7.5 0 1 0 15 0 a7.5 7.5 0 1 0 -15 0zM996.33 424.16 a7.5 7.5 0 1 0 15 0 a7.5 7.5 0 1 0 -15 0zM996.33 499.16 a7.5 7.5 0 1 0 15 0 a7.5 7.5 0 1 0 -15 0zM1061.28 536.66 a7.5 7.5 0 1 0 15 0 a7.5 7.5 0 1 0 -15 0zM1061.28 611.66 a7.5 7.5 0 1 0 15 0 a7.5 7.5 0 1 0 -15 0zM996.33 649.16 a7.5 7.5 0 1 0 15 0 a7.5 7.5 0 1 0 -15 0zM931.37 611.66 a7.5 7.5 0 1 0 15 0 a7.5 7.5 0 1 0 -15 0zM931.37 536.66 a7.5 7.5 0 1 0 15 0 a7.5 7.5 0 1 0 -15 0zM1061.28 -63.34 a7.5 7.5 0 1 0 15 0 a7.5 7.5 0 1 0 -15 0zM1126.23 -25.84 a7.5 7.5 0 1 0 15 0 a7.5 7.5 0 1 0 -15 0zM1126.23 49.16 a7.5 7.5 0 1 0 15 0 a7.5 7.5 0 1 0 -15 0zM1061.28 86.66 a7.5 7.5 0 1 0 15 0 a7.5 7.5 0 1 0 -15 0zM1191.19 86.66 a7.5 7.5 0 1 0 15 0 a7.5 7.5 0 1 0 -15 0zM1191.19 161.66 a7.5 7.5 0 1 0 15 0 a7.5 7.5 0 1 0 -15 0zM1126.23 199.16 a7.5 7.5 0 1 0 15 0 a7.5 7.5 0 1 0 -15 0zM1061.28 161.66 a7.5 7.5 0 1 0 15 0 a7.5 7.5 0 1 0 -15 0zM1126.23 274.16 a7.5 7.5 0 1 0 15 0 a7.5 7.5 0 1 0 -15 0zM1191.19 311.66 a7.5 7.5 0 1 0 15 0 a7.5 7.5 0 1 0 -15 0zM1191.19 386.66 a7.5 7.5 0 1 0 15 0 a7.5 7.5 0 1 0 -15 0zM1126.23 424.16 a7.5 7.5 0 1 0 15 0 a7.5 7.5 0 1 0 -15 0zM1126.23 499.16 a7.5 7.5 0 1 0 15 0 a7.5 7.5 0 1 0 -15 0zM1256.14 49.16 a7.5 7.5 0 1 0 15 0 a7.5 7.5 0 1 0 -15 0zM1321.09 86.66 a7.5 7.5 0 1 0 15 0 a7.5 7.5 0 1 0 -15 0zM1321.09 161.66 a7.5 7.5 0 1 0 15 0 a7.5 7.5 0 1 0 -15 0zM1256.14 199.16 a7.5 7.5 0 1 0 15 0 a7.5 7.5 0 1 0 -15 0zM1256.14 274.16 a7.5 7.5 0 1 0 15 0 a7.5 7.5 0 1 0 -15 0zM1321.09 311.66 a7.5 7.5 0 1 0 15 0 a7.5 7.5 0 1 0 -15 0zM1321.09 386.66 a7.5 7.5 0 1 0 15 0 a7.5 7.5 0 1 0 -15 0zM1256.14 424.16 a7.5 7.5 0 1 0 15 0 a7.5 7.5 0 1 0 -15 0zM1256.14 499.16 a7.5 7.5 0 1 0 15 0 a7.5 7.5 0 1 0 -15 0zM1321.09 536.66 a7.5 7.5 0 1 0 15 0 a7.5 7.5 0 1 0 -15 0zM1321.09 611.66 a7.5 7.5 0 1 0 15 0 a7.5 7.5 0 1 0 -15 0zM1256.14 649.16 a7.5 7.5 0 1 0 15 0 a7.5 7.5 0 1 0 -15 0zM1191.19 611.66 a7.5 7.5 0 1 0 15 0 a7.5 7.5 0 1 0 -15 0zM1191.19 536.66 a7.5 7.5 0 1 0 15 0 a7.5 7.5 0 1 0 -15 0zM1321.1 -63.34 a7.5 7.5 0 1 0 15 0 a7.5 7.5 0 1 0 -15 0zM1386.05 -25.84 a7.5 7.5 0 1 0 15 0 a7.5 7.5 0 1 0 -15 0zM1386.05 49.16 a7.5 7.5 0 1 0 15 0 a7.5 7.5 0 1 0 -15 0zM1321.1 86.66 a7.5 7.5 0 1 0 15 0 a7.5 7.5 0 1 0 -15 0zM1256.14 -25.84 a7.5 7.5 0 1 0 15 0 a7.5 7.5 0 1 0 -15 0zM1321.1 161.66 a7.5 7.5 0 1 0 15 0 a7.5 7.5 0 1 0 -15 0zM1386.05 199.16 a7.5 7.5 0 1 0 15 0 a7.5 7.5 0 1 0 -15 0zM1386.05 274.16 a7.5 7.5 0 1 0 15 0 a7.5 7.5 0 1 0 -15 0zM1321.1 311.66 a7.5 7.5 0 1 0 15 0 a7.5 7.5 0 1 0 -15 0zM1515.96 49.16 a7.5 7.5 0 1 0 15 0 a7.5 7.5 0 1 0 -15 0zM1580.91 86.66 a7.5 7.5 0 1 0 15 0 a7.5 7.5 0 1 0 -15 0zM1580.91 161.66 a7.5 7.5 0 1 0 15 0 a7.5 7.5 0 1 0 -15 0zM1515.96 199.16 a7.5 7.5 0 1 0 15 0 a7.5 7.5 0 1 0 -15 0zM1451 161.66 a7.5 7.5 0 1 0 15 0 a7.5 7.5 0 1 0 -15 0zM1451 86.66 a7.5 7.5 0 1 0 15 0 a7.5 7.5 0 1 0 -15 0zM1515.96 274.16 a7.5 7.5 0 1 0 15 0 a7.5 7.5 0 1 0 -15 0zM1451 311.66 a7.5 7.5 0 1 0 15 0 a7.5 7.5 0 1 0 -15 0z" fill="#03305d"></path><path d="M22.78 -15.84L66.08 9.16L66.08 59.16L22.78 84.16L-20.52 59.16L-20.52 9.16zM22.78 284.16L66.08 309.16L66.08 359.16L22.78 384.16L-20.52 359.16L-20.52 309.16zM66.08 359.16L109.39 384.16L109.39 434.16L66.08 459.16L22.78 434.16L22.78 384.16zM66.08 509.16L109.39 534.16L109.39 584.16L66.08 609.16L22.78 584.16L22.78 534.16zM109.39 -15.84L152.69 9.16L152.69 59.16L109.39 84.16L66.08 59.16L66.08 9.16zM152.69 59.16L195.99 84.16L195.99 134.16L152.69 159.16L109.39 134.16L109.39 84.16zM109.39 434.16L152.69 459.16L152.69 509.16L109.39 534.16L66.08 509.16L66.08 459.16zM195.99 134.16L239.29 159.16L239.29 209.16L195.99 234.16L152.69 209.16L152.69 159.16zM195.99 284.16L239.29 309.16L239.29 359.16L195.99 384.16L152.69 359.16L152.69 309.16zM239.29 359.16L282.6 384.16L282.6 434.16L239.29 459.16L195.99 434.16L195.99 384.16zM282.6 -15.84L325.9 9.16L325.9 59.16L282.6 84.16L239.29 59.16L239.29 9.16zM325.9 59.16L369.2 84.16L369.2 134.16L325.9 159.16L282.6 134.16L282.6 84.16zM282.6 134.16L325.9 159.16L325.9 209.16L282.6 234.16L239.29 209.16L239.29 159.16zM325.9 209.16L369.2 234.16L369.2 284.16L325.9 309.16L282.6 284.16L282.6 234.16zM282.6 284.16L325.9 309.16L325.9 359.16L282.6 384.16L239.29 359.16L239.29 309.16zM369.2 134.16L412.5 159.16L412.5 209.16L369.2 234.16L325.9 209.16L325.9 159.16zM412.5 209.16L455.81 234.16L455.81 284.16L412.5 309.16L369.2 284.16L369.2 234.16zM369.2 434.16L412.5 459.16L412.5 509.16L369.2 534.16L325.9 509.16L325.9 459.16zM412.5 509.16L455.81 534.16L455.81 584.16L412.5 609.16L369.2 584.16L369.2 534.16zM455.81 134.16L499.11 159.16L499.11 209.16L455.81 234.16L412.5 209.16L412.5 159.16zM499.11 209.16L542.41 234.16L542.41 284.16L499.11 309.16L455.81 284.16L455.81 234.16zM455.81 284.16L499.11 309.16L499.11 359.16L455.81 384.16L412.5 359.16L412.5 309.16zM499.11 359.16L542.41 384.16L542.41 434.16L499.11 459.16L455.81 434.16L455.81 384.16zM455.81 434.16L499.11 459.16L499.11 509.16L455.81 534.16L412.5 509.16L412.5 459.16zM499.11 509.16L542.41 534.16L542.41 584.16L499.11 609.16L455.81 584.16L455.81 534.16zM542.41 134.16L585.71 159.16L585.71 209.16L542.41 234.16L499.11 209.16L499.11 159.16zM629.01 134.16L672.32 159.16L672.32 209.16L629.01 234.16L585.71 209.16L585.71 159.16zM715.62 284.16L758.92 309.16L758.92 359.16L715.62 384.16L672.32 359.16L672.32 309.16zM758.92 359.16L802.23 384.16L802.23 434.16L758.92 459.16L715.62 434.16L715.62 384.16zM715.62 434.16L758.92 459.16L758.92 509.16L715.62 534.16L672.32 509.16L672.32 459.16zM758.92 509.16L802.23 534.16L802.23 584.16L758.92 609.16L715.62 584.16L715.62 534.16zM802.23 -15.84L845.53 9.16L845.53 59.16L802.23 84.16L758.92 59.16L758.92 9.16zM845.53 209.16L888.83 234.16L888.83 284.16L845.53 309.16L802.23 284.16L802.23 234.16zM845.53 359.16L888.83 384.16L888.83 434.16L845.53 459.16L802.23 434.16L802.23 384.16zM845.53 509.16L888.83 534.16L888.83 584.16L845.53 609.16L802.23 584.16L802.23 534.16zM888.83 -15.84L932.13 9.16L932.13 59.16L888.83 84.16L845.53 59.16L845.53 9.16zM888.83 134.16L932.13 159.16L932.13 209.16L888.83 234.16L845.53 209.16L845.53 159.16zM888.83 284.16L932.13 309.16L932.13 359.16L888.83 384.16L845.53 359.16L845.53 309.16zM888.83 434.16L932.13 459.16L932.13 509.16L888.83 534.16L845.53 509.16L845.53 459.16zM1018.74 59.16L1062.04 84.16L1062.04 134.16L1018.74 159.16L975.44 134.16L975.44 84.16zM1018.74 209.16L1062.04 234.16L1062.04 284.16L1018.74 309.16L975.44 284.16L975.44 234.16zM1018.74 359.16L1062.04 384.16L1062.04 434.16L1018.74 459.16L975.44 434.16L975.44 384.16zM1018.74 509.16L1062.04 534.16L1062.04 584.16L1018.74 609.16L975.44 584.16L975.44 534.16zM1105.34 209.16L1148.64 234.16L1148.64 284.16L1105.34 309.16L1062.04 284.16L1062.04 234.16zM1062.04 284.16L1105.34 309.16L1105.34 359.16L1062.04 384.16L1018.74 359.16L1018.74 309.16zM1062.04 434.16L1105.34 459.16L1105.34 509.16L1062.04 534.16L1018.74 509.16L1018.74 459.16zM1148.64 -15.84L1191.95 9.16L1191.95 59.16L1148.64 84.16L1105.34 59.16L1105.34 9.16zM1148.64 434.16L1191.95 459.16L1191.95 509.16L1148.64 534.16L1105.34 509.16L1105.34 459.16zM1235.25 284.16L1278.55 309.16L1278.55 359.16L1235.25 384.16L1191.95 359.16L1191.95 309.16zM1278.55 359.16L1321.86 384.16L1321.86 434.16L1278.55 459.16L1235.25 434.16L1235.25 384.16zM1278.55 509.16L1321.86 534.16L1321.86 584.16L1278.55 609.16L1235.25 584.16L1235.25 534.16zM1321.86 -15.84L1365.16 9.16L1365.16 59.16L1321.86 84.16L1278.55 59.16L1278.55 9.16zM1365.16 209.16L1408.46 234.16L1408.46 284.16L1365.16 309.16L1321.86 284.16L1321.86 234.16zM1451.76 209.16L1495.07 234.16L1495.07 284.16L1451.76 309.16L1408.46 284.16L1408.46 234.16zM1451.76 509.16L1495.07 534.16L1495.07 584.16L1451.76 609.16L1408.46 584.16L1408.46 534.16z" stroke="rgba(6, 156, 134, 0.93)" stroke-width="2"></path></g><defs><mask id="SvgjsMask1002"><rect width="1440" height="560" fill="#ffffff"></rect></mask></defs></svg>