<svg xmlns="http://www.w3.org/2000/svg" version="1.1" xmlns:xlink="http://www.w3.org/1999/xlink" xmlns:svgjs="http://svgjs.com/svgjs" width="1440" height="560" preserveAspectRatio="none" viewBox="0 0 1440 560"><g mask="url(&quot;#SvgjsMask1301&quot;)" fill="none"><rect width="1440" height="560" x="0" y="0" fill="rgba(6, 11, 17, 1)"></rect><path d="M94.8 61.66L159.76 99.16L159.76 174.16L94.8 211.66L29.85 174.16L29.85 99.16zM159.76 174.16L224.71 211.66L224.71 286.66L159.76 324.16L94.8 286.66L94.8 211.66zM289.67 -50.84L354.62 -13.34L354.62 61.66L289.67 99.16L224.71 61.66L224.71 -13.34zM289.67 174.16L354.62 211.66L354.62 286.66L289.67 324.16L224.71 286.66L224.71 211.66zM549.48 174.16L614.43 211.66L614.43 286.66L549.48 324.16L484.53 286.66L484.53 211.66zM614.43 286.66L679.39 324.16L679.39 399.16L614.43 436.66L549.48 399.16L549.48 324.16zM549.48 399.16L614.43 436.66L614.43 511.66L549.48 549.16L484.53 511.66L484.53 436.66zM744.34 286.66L809.3 324.16L809.3 399.16L744.34 436.66L679.39 399.16L679.39 324.16zM809.29 -50.84L874.25 -13.34L874.25 61.66L809.29 99.16L744.34 61.66L744.34 -13.34zM874.25 61.66L939.2 99.16L939.2 174.16L874.25 211.66L809.29 174.16L809.29 99.16zM874.25 511.66L939.2 549.16L939.2 624.16L874.25 661.66L809.29 624.16L809.29 549.16zM939.2 -50.84L1004.16 -13.34L1004.16 61.66L939.2 99.16L874.25 61.66L874.25 -13.34zM1004.16 61.66L1069.11 99.16L1069.11 174.16L1004.16 211.66L939.2 174.16L939.2 99.16zM939.2 174.16L1004.16 211.66L1004.16 286.66L939.2 324.16L874.25 286.66L874.25 211.66zM1134.06 511.66L1199.02 549.16L1199.02 624.16L1134.06 661.66L1069.11 624.16L1069.11 549.16zM1263.97 61.66L1328.92 99.16L1328.92 174.16L1263.97 211.66L1199.02 174.16L1199.02 99.16zM1199.02 174.16L1263.97 211.66L1263.97 286.66L1199.02 324.16L1134.06 286.66L1134.06 211.66zM1263.97 286.66L1328.92 324.16L1328.92 399.16L1263.97 436.66L1199.02 399.16L1199.02 324.16zM1199.02 399.16L1263.97 436.66L1263.97 511.66L1199.02 549.16L1134.06 511.66L1134.06 436.66zM1263.97 511.66L1328.92 549.16L1328.92 624.16L1263.97 661.66L1199.02 624.16L1199.02 549.16zM1328.92 -50.84L1393.88 -13.34L1393.88 61.66L1328.92 99.16L1263.97 61.66L1263.97 -13.34zM1458.83 -50.84L1523.79 -13.34L1523.79 61.66L1458.83 99.16L1393.88 61.66L1393.88 -13.34zM1523.79 286.66L1588.74 324.16L1588.74 399.16L1523.79 436.66L1458.83 399.16L1458.83 324.16z" stroke="rgba(3, 26, 93, 0.56)" stroke-width="2"></path><path d="M87.3 61.66 a7.5 7.5 0 1 0 15 0 a7.5 7.5 0 1 0 -15 0zM152.26 99.16 a7.5 7.5 0 1 0 15 0 a7.5 7.5 0 1 0 -15 0zM152.26 174.16 a7.5 7.5 0 1 0 15 0 a7.5 7.5 0 1 0 -15 0zM87.3 211.66 a7.5 7.5 0 1 0 15 0 a7.5 7.5 0 1 0 -15 0zM22.35 174.16 a7.5 7.5 0 1 0 15 0 a7.5 7.5 0 1 0 -15 0zM22.35 99.16 a7.5 7.5 0 1 0 15 0 a7.5 7.5 0 1 0 -15 0zM217.21 211.66 a7.5 7.5 0 1 0 15 0 a7.5 7.5 0 1 0 -15 0zM217.21 286.66 a7.5 7.5 0 1 0 15 0 a7.5 7.5 0 1 0 -15 0zM152.26 324.16 a7.5 7.5 0 1 0 15 0 a7.5 7.5 0 1 0 -15 0zM87.3 286.66 a7.5 7.5 0 1 0 15 0 a7.5 7.5 0 1 0 -15 0zM282.17 -50.84 a7.5 7.5 0 1 0 15 0 a7.5 7.5 0 1 0 -15 0zM347.12 -13.34 a7.5 7.5 0 1 0 15 0 a7.5 7.5 0 1 0 -15 0zM347.12 61.66 a7.5 7.5 0 1 0 15 0 a7.5 7.5 0 1 0 -15 0zM282.17 99.16 a7.5 7.5 0 1 0 15 0 a7.5 7.5 0 1 0 -15 0zM217.21 61.66 a7.5 7.5 0 1 0 15 0 a7.5 7.5 0 1 0 -15 0zM217.21 -13.34 a7.5 7.5 0 1 0 15 0 a7.5 7.5 0 1 0 -15 0zM282.17 174.16 a7.5 7.5 0 1 0 15 0 a7.5 7.5 0 1 0 -15 0zM347.12 211.66 a7.5 7.5 0 1 0 15 0 a7.5 7.5 0 1 0 -15 0zM347.12 286.66 a7.5 7.5 0 1 0 15 0 a7.5 7.5 0 1 0 -15 0zM282.17 324.16 a7.5 7.5 0 1 0 15 0 a7.5 7.5 0 1 0 -15 0zM541.98 174.16 a7.5 7.5 0 1 0 15 0 a7.5 7.5 0 1 0 -15 0zM606.93 211.66 a7.5 7.5 0 1 0 15 0 a7.5 7.5 0 1 0 -15 0zM606.93 286.66 a7.5 7.5 0 1 0 15 0 a7.5 7.5 0 1 0 -15 0zM541.98 324.16 a7.5 7.5 0 1 0 15 0 a7.5 7.5 0 1 0 -15 0zM477.03 286.66 a7.5 7.5 0 1 0 15 0 a7.5 7.5 0 1 0 -15 0zM477.03 211.66 a7.5 7.5 0 1 0 15 0 a7.5 7.5 0 1 0 -15 0zM671.89 324.16 a7.5 7.5 0 1 0 15 0 a7.5 7.5 0 1 0 -15 0zM671.89 399.16 a7.5 7.5 0 1 0 15 0 a7.5 7.5 0 1 0 -15 0zM606.93 436.66 a7.5 7.5 0 1 0 15 0 a7.5 7.5 0 1 0 -15 0zM541.98 399.16 a7.5 7.5 0 1 0 15 0 a7.5 7.5 0 1 0 -15 0zM606.93 511.66 a7.5 7.5 0 1 0 15 0 a7.5 7.5 0 1 0 -15 0zM541.98 549.16 a7.5 7.5 0 1 0 15 0 a7.5 7.5 0 1 0 -15 0zM477.03 511.66 a7.5 7.5 0 1 0 15 0 a7.5 7.5 0 1 0 -15 0zM477.03 436.66 a7.5 7.5 0 1 0 15 0 a7.5 7.5 0 1 0 -15 0zM736.84 286.66 a7.5 7.5 0 1 0 15 0 a7.5 7.5 0 1 0 -15 0zM801.8 324.16 a7.5 7.5 0 1 0 15 0 a7.5 7.5 0 1 0 -15 0zM801.8 399.16 a7.5 7.5 0 1 0 15 0 a7.5 7.5 0 1 0 -15 0zM736.84 436.66 a7.5 7.5 0 1 0 15 0 a7.5 7.5 0 1 0 -15 0zM801.79 -50.84 a7.5 7.5 0 1 0 15 0 a7.5 7.5 0 1 0 -15 0zM866.75 -13.34 a7.5 7.5 0 1 0 15 0 a7.5 7.5 0 1 0 -15 0zM866.75 61.66 a7.5 7.5 0 1 0 15 0 a7.5 7.5 0 1 0 -15 0zM801.79 99.16 a7.5 7.5 0 1 0 15 0 a7.5 7.5 0 1 0 -15 0zM736.84 61.66 a7.5 7.5 0 1 0 15 0 a7.5 7.5 0 1 0 -15 0zM736.84 -13.34 a7.5 7.5 0 1 0 15 0 a7.5 7.5 0 1 0 -15 0zM931.7 99.16 a7.5 7.5 0 1 0 15 0 a7.5 7.5 0 1 0 -15 0zM931.7 174.16 a7.5 7.5 0 1 0 15 0 a7.5 7.5 0 1 0 -15 0zM866.75 211.66 a7.5 7.5 0 1 0 15 0 a7.5 7.5 0 1 0 -15 0zM801.79 174.16 a7.5 7.5 0 1 0 15 0 a7.5 7.5 0 1 0 -15 0zM866.75 511.66 a7.5 7.5 0 1 0 15 0 a7.5 7.5 0 1 0 -15 0zM931.7 549.16 a7.5 7.5 0 1 0 15 0 a7.5 7.5 0 1 0 -15 0zM931.7 624.16 a7.5 7.5 0 1 0 15 0 a7.5 7.5 0 1 0 -15 0zM866.75 661.66 a7.5 7.5 0 1 0 15 0 a7.5 7.5 0 1 0 -15 0zM801.79 624.16 a7.5 7.5 0 1 0 15 0 a7.5 7.5 0 1 0 -15 0zM801.79 549.16 a7.5 7.5 0 1 0 15 0 a7.5 7.5 0 1 0 -15 0zM931.7 -50.84 a7.5 7.5 0 1 0 15 0 a7.5 7.5 0 1 0 -15 0zM996.66 -13.34 a7.5 7.5 0 1 0 15 0 a7.5 7.5 0 1 0 -15 0zM996.66 61.66 a7.5 7.5 0 1 0 15 0 a7.5 7.5 0 1 0 -15 0zM1061.61 99.16 a7.5 7.5 0 1 0 15 0 a7.5 7.5 0 1 0 -15 0zM1061.61 174.16 a7.5 7.5 0 1 0 15 0 a7.5 7.5 0 1 0 -15 0zM996.66 211.66 a7.5 7.5 0 1 0 15 0 a7.5 7.5 0 1 0 -15 0zM996.66 286.66 a7.5 7.5 0 1 0 15 0 a7.5 7.5 0 1 0 -15 0zM931.7 324.16 a7.5 7.5 0 1 0 15 0 a7.5 7.5 0 1 0 -15 0zM866.75 286.66 a7.5 7.5 0 1 0 15 0 a7.5 7.5 0 1 0 -15 0zM1126.56 511.66 a7.5 7.5 0 1 0 15 0 a7.5 7.5 0 1 0 -15 0zM1191.52 549.16 a7.5 7.5 0 1 0 15 0 a7.5 7.5 0 1 0 -15 0zM1191.52 624.16 a7.5 7.5 0 1 0 15 0 a7.5 7.5 0 1 0 -15 0zM1126.56 661.66 a7.5 7.5 0 1 0 15 0 a7.5 7.5 0 1 0 -15 0zM1061.61 624.16 a7.5 7.5 0 1 0 15 0 a7.5 7.5 0 1 0 -15 0zM1061.61 549.16 a7.5 7.5 0 1 0 15 0 a7.5 7.5 0 1 0 -15 0zM1256.47 61.66 a7.5 7.5 0 1 0 15 0 a7.5 7.5 0 1 0 -15 0zM1321.42 99.16 a7.5 7.5 0 1 0 15 0 a7.5 7.5 0 1 0 -15 0zM1321.42 174.16 a7.5 7.5 0 1 0 15 0 a7.5 7.5 0 1 0 -15 0zM1256.47 211.66 a7.5 7.5 0 1 0 15 0 a7.5 7.5 0 1 0 -15 0zM1191.52 174.16 a7.5 7.5 0 1 0 15 0 a7.5 7.5 0 1 0 -15 0zM1191.52 99.16 a7.5 7.5 0 1 0 15 0 a7.5 7.5 0 1 0 -15 0zM1256.47 286.66 a7.5 7.5 0 1 0 15 0 a7.5 7.5 0 1 0 -15 0zM1191.52 324.16 a7.5 7.5 0 1 0 15 0 a7.5 7.5 0 1 0 -15 0zM1126.56 286.66 a7.5 7.5 0 1 0 15 0 a7.5 7.5 0 1 0 -15 0zM1126.56 211.66 a7.5 7.5 0 1 0 15 0 a7.5 7.5 0 1 0 -15 0zM1321.42 324.16 a7.5 7.5 0 1 0 15 0 a7.5 7.5 0 1 0 -15 0zM1321.42 399.16 a7.5 7.5 0 1 0 15 0 a7.5 7.5 0 1 0 -15 0zM1256.47 436.66 a7.5 7.5 0 1 0 15 0 a7.5 7.5 0 1 0 -15 0zM1191.52 399.16 a7.5 7.5 0 1 0 15 0 a7.5 7.5 0 1 0 -15 0zM1256.47 511.66 a7.5 7.5 0 1 0 15 0 a7.5 7.5 0 1 0 -15 0zM1126.56 436.66 a7.5 7.5 0 1 0 15 0 a7.5 7.5 0 1 0 -15 0zM1321.42 549.16 a7.5 7.5 0 1 0 15 0 a7.5 7.5 0 1 0 -15 0zM1321.42 624.16 a7.5 7.5 0 1 0 15 0 a7.5 7.5 0 1 0 -15 0zM1256.47 661.66 a7.5 7.5 0 1 0 15 0 a7.5 7.5 0 1 0 -15 0zM1321.42 -50.84 a7.5 7.5 0 1 0 15 0 a7.5 7.5 0 1 0 -15 0zM1386.38 -13.34 a7.5 7.5 0 1 0 15 0 a7.5 7.5 0 1 0 -15 0zM1386.38 61.66 a7.5 7.5 0 1 0 15 0 a7.5 7.5 0 1 0 -15 0zM1256.47 -13.34 a7.5 7.5 0 1 0 15 0 a7.5 7.5 0 1 0 -15 0zM1451.33 -50.84 a7.5 7.5 0 1 0 15 0 a7.5 7.5 0 1 0 -15 0zM1516.29 -13.34 a7.5 7.5 0 1 0 15 0 a7.5 7.5 0 1 0 -15 0zM1516.29 61.66 a7.5 7.5 0 1 0 15 0 a7.5 7.5 0 1 0 -15 0zM1451.33 99.16 a7.5 7.5 0 1 0 15 0 a7.5 7.5 0 1 0 -15 0zM1516.29 286.66 a7.5 7.5 0 1 0 15 0 a7.5 7.5 0 1 0 -15 0zM1581.24 324.16 a7.5 7.5 0 1 0 15 0 a7.5 7.5 0 1 0 -15 0zM1581.24 399.16 a7.5 7.5 0 1 0 15 0 a7.5 7.5 0 1 0 -15 0zM1516.29 436.66 a7.5 7.5 0 1 0 15 0 a7.5 7.5 0 1 0 -15 0zM1451.33 399.16 a7.5 7.5 0 1 0 15 0 a7.5 7.5 0 1 0 -15 0zM1451.33 324.16 a7.5 7.5 0 1 0 15 0 a7.5 7.5 0 1 0 -15 0z" fill="rgba(3, 26, 93, 0.56)"></path><path d="M4.69 112.52L47.99 137.52L47.99 187.52L4.69 212.52L-38.61 187.52L-38.61 137.52zM47.99 337.52L91.3 362.52L91.3 412.52L47.99 437.52L4.69 412.52L4.69 362.52zM4.69 412.52L47.99 437.52L47.99 487.52L4.69 512.52L-38.61 487.52L-38.61 437.52zM47.99 487.52L91.3 512.52L91.3 562.52L47.99 587.52L4.69 562.52L4.69 512.52zM91.3 -37.48L134.6 -12.48L134.6 37.52L91.3 62.52L47.99 37.52L47.99 -12.48zM134.6 37.52L177.9 62.52L177.9 112.52L134.6 137.52L91.3 112.52L91.3 62.52zM91.3 112.52L134.6 137.52L134.6 187.52L91.3 212.52L47.99 187.52L47.99 137.52zM134.6 187.52L177.9 212.52L177.9 262.52L134.6 287.52L91.3 262.52L91.3 212.52zM91.3 262.52L134.6 287.52L134.6 337.52L91.3 362.52L47.99 337.52L47.99 287.52zM177.9 -37.48L221.2 -12.48L221.2 37.52L177.9 62.52L134.6 37.52L134.6 -12.48zM177.9 112.52L221.2 137.52L221.2 187.52L177.9 212.52L134.6 187.52L134.6 137.52zM221.2 187.52L264.5 212.52L264.5 262.52L221.2 287.52L177.9 262.52L177.9 212.52zM221.2 337.52L264.5 362.52L264.5 412.52L221.2 437.52L177.9 412.52L177.9 362.52zM264.5 -37.48L307.81 -12.48L307.81 37.52L264.5 62.52L221.2 37.52L221.2 -12.48zM307.81 37.52L351.11 62.52L351.11 112.52L307.81 137.52L264.5 112.52L264.5 62.52zM264.5 262.52L307.81 287.52L307.81 337.52L264.5 362.52L221.2 337.52L221.2 287.52zM307.81 337.52L351.11 362.52L351.11 412.52L307.81 437.52L264.5 412.52L264.5 362.52zM394.41 37.52L437.72 62.52L437.72 112.52L394.41 137.52L351.11 112.52L351.11 62.52zM351.11 412.52L394.41 437.52L394.41 487.52L351.11 512.52L307.81 487.52L307.81 437.52zM394.41 487.52L437.72 512.52L437.72 562.52L394.41 587.52L351.11 562.52L351.11 512.52zM437.72 112.52L481.02 137.52L481.02 187.52L437.72 212.52L394.41 187.52L394.41 137.52zM481.02 187.52L524.32 212.52L524.32 262.52L481.02 287.52L437.72 262.52L437.72 212.52zM437.72 262.52L481.02 287.52L481.02 337.52L437.72 362.52L394.41 337.52L394.41 287.52zM524.32 -37.48L567.62 -12.48L567.62 37.52L524.32 62.52L481.02 37.52L481.02 -12.48zM567.62 187.52L610.93 212.52L610.93 262.52L567.62 287.52L524.32 262.52L524.32 212.52zM567.62 337.52L610.93 362.52L610.93 412.52L567.62 437.52L524.32 412.52L524.32 362.52zM524.32 412.52L567.62 437.52L567.62 487.52L524.32 512.52L481.02 487.52L481.02 437.52zM654.23 37.52L697.53 62.52L697.53 112.52L654.23 137.52L610.93 112.52L610.93 62.52zM610.93 112.52L654.23 137.52L654.23 187.52L610.93 212.52L567.62 187.52L567.62 137.52zM610.93 412.52L654.23 437.52L654.23 487.52L610.93 512.52L567.62 487.52L567.62 437.52zM654.23 487.52L697.53 512.52L697.53 562.52L654.23 587.52L610.93 562.52L610.93 512.52zM697.53 -37.48L740.83 -12.48L740.83 37.52L697.53 62.52L654.23 37.52L654.23 -12.48zM697.53 412.52L740.83 437.52L740.83 487.52L697.53 512.52L654.23 487.52L654.23 437.52zM740.83 487.52L784.14 512.52L784.14 562.52L740.83 587.52L697.53 562.52L697.53 512.52zM827.44 37.52L870.74 62.52L870.74 112.52L827.44 137.52L784.14 112.52L784.14 62.52zM784.14 112.52L827.44 137.52L827.44 187.52L784.14 212.52L740.83 187.52L740.83 137.52zM784.14 262.52L827.44 287.52L827.44 337.52L784.14 362.52L740.83 337.52L740.83 287.52zM784.14 412.52L827.44 437.52L827.44 487.52L784.14 512.52L740.83 487.52L740.83 437.52zM827.44 487.52L870.74 512.52L870.74 562.52L827.44 587.52L784.14 562.52L784.14 512.52zM870.74 112.52L914.04 137.52L914.04 187.52L870.74 212.52L827.44 187.52L827.44 137.52zM870.74 412.52L914.04 437.52L914.04 487.52L870.74 512.52L827.44 487.52L827.44 437.52zM914.04 487.52L957.35 512.52L957.35 562.52L914.04 587.52L870.74 562.52L870.74 512.52zM1000.65 187.52L1043.95 212.52L1043.95 262.52L1000.65 287.52L957.35 262.52L957.35 212.52zM957.35 262.52L1000.65 287.52L1000.65 337.52L957.35 362.52L914.04 337.52L914.04 287.52zM1000.65 487.52L1043.95 512.52L1043.95 562.52L1000.65 587.52L957.35 562.52L957.35 512.52zM1087.25 187.52L1130.56 212.52L1130.56 262.52L1087.25 287.52L1043.95 262.52L1043.95 212.52zM1043.95 262.52L1087.25 287.52L1087.25 337.52L1043.95 362.52L1000.65 337.52L1000.65 287.52zM1130.56 -37.48L1173.86 -12.48L1173.86 37.52L1130.56 62.52L1087.25 37.52L1087.25 -12.48zM1130.56 112.52L1173.86 137.52L1173.86 187.52L1130.56 212.52L1087.25 187.52L1087.25 137.52zM1130.56 412.52L1173.86 437.52L1173.86 487.52L1130.56 512.52L1087.25 487.52L1087.25 437.52zM1217.16 -37.48L1260.46 -12.48L1260.46 37.52L1217.16 62.52L1173.86 37.52L1173.86 -12.48zM1260.46 37.52L1303.77 62.52L1303.77 112.52L1260.46 137.52L1217.16 112.52L1217.16 62.52zM1260.46 187.52L1303.77 212.52L1303.77 262.52L1260.46 287.52L1217.16 262.52L1217.16 212.52zM1217.16 412.52L1260.46 437.52L1260.46 487.52L1217.16 512.52L1173.86 487.52L1173.86 437.52zM1303.77 112.52L1347.07 137.52L1347.07 187.52L1303.77 212.52L1260.46 187.52L1260.46 137.52zM1303.77 412.52L1347.07 437.52L1347.07 487.52L1303.77 512.52L1260.46 487.52L1260.46 437.52zM1347.07 487.52L1390.37 512.52L1390.37 562.52L1347.07 587.52L1303.77 562.52L1303.77 512.52zM1433.67 187.52L1476.98 212.52L1476.98 262.52L1433.67 287.52L1390.37 262.52L1390.37 212.52zM1390.37 412.52L1433.67 437.52L1433.67 487.52L1390.37 512.52L1347.07 487.52L1347.07 437.52z" stroke="url(#SvgjsLinearGradient1302)" stroke-width="2"></path></g><defs><mask id="SvgjsMask1301"><rect width="1440" height="560" fill="#ffffff"></rect></mask><linearGradient x1="220.03199999999998" y1="-220.02399999999997" x2="1219.9679999999998" y2="780.024" gradientUnits="userSpaceOnUse" id="SvgjsLinearGradient1302"><stop stop-color="#0e2a47" offset="0"></stop><stop stop-color="rgba(8, 30, 15, 1)" offset="1"></stop></linearGradient></defs></svg>